<svg width="170" height="147" viewBox="0 0 170 147" fill="none" xmlns="http://www.w3.org/2000/svg">
<path d="M29.4018 74.6551C8.86082 78.1832 3.62488 66.1288 0 59.2196V16H70.8866V94.9418H58.4009C51.6881 86.4155 49.9428 71.127 29.4018 74.6551Z" fill="#808AFF"/>
<path d="M112.371 74.6551C132.912 78.1832 138.148 66.1288 141.773 59.2196V16H70.8866V94.9418H83.3722C90.085 86.4155 91.8303 71.127 112.371 74.6551Z" fill="#808AFF"/>
<g clip-path="url(#clip0_362_8)">
<path d="M155.886 41.3394H152.5V58.3394H155.886V41.3394Z" fill="#9BA3FF"/>
<path d="M161.193 47.0536H157.807V58.3391H161.193V47.0536Z" fill="#9BA3FF"/>
<path d="M166.507 52.4394H163.121V58.3394H166.507V52.4394Z" fill="#9BA3FF"/>
</g>
<g clip-path="url(#clip1_362_8)">
<path d="M91 146.339C110.054 146.339 125.5 143.653 125.5 140.339C125.5 137.026 110.054 134.339 91 134.339C71.9462 134.339 56.5 137.026 56.5 140.339C56.5 143.653 71.9462 146.339 91 146.339Z" fill="#808AFF"/>
</g>
<path d="M85.1817 62.4955C85.1817 62.4955 83.8302 77.436 89.4285 77.2109C95.4339 76.9663 93.8185 62.4955 93.8185 62.4955C93.0337 60.1631 92.721 58.7799 93.0727 56.3333H85.7809C86.1327 58.7799 85.9633 60.1631 85.1817 62.4955Z" fill="#FDBCA0"/>
<path d="M85.9274 59.2234C86.7546 59.4713 87.5883 59.6997 88.4514 59.7714C89.2688 59.8399 90.109 59.7877 90.9232 59.6997C91.6006 59.6246 92.3236 59.5039 93.001 59.2788C92.8935 58.3915 92.9098 57.4781 93.0759 56.3299H85.7841C85.9437 57.4553 85.9925 58.3557 85.9274 59.2234Z" fill="#F0A38B"/>
<path d="M89.4283 58.3721C91.5094 58.3721 93.5122 57.5501 94.9778 56.0691C96.7234 54.3075 98.0912 52.3437 98.4918 50.0374C99.0063 47.0754 98.0065 44.1166 95.8245 41.7353H83.0288C80.8468 44.1134 79.847 47.0754 80.3616 50.0374C80.7621 52.3437 82.1332 54.3075 83.8756 56.0691C85.3444 57.5468 87.3473 58.3721 89.4283 58.3721Z" fill="#FDBCA0"/>
<path d="M90.0635 64.2376C89.7997 64.5279 89.5522 64.8443 89.3177 65.1607C89.0344 64.965 88.8097 64.7269 88.5622 64.4822C88.5394 64.4594 88.4938 64.4822 88.5035 64.5148C88.6436 64.8998 88.9367 65.2129 89.2363 65.4804C89.3014 65.5359 89.3926 65.5424 89.4578 65.4804C89.7737 65.1705 90.0831 64.8084 90.3273 64.4365C90.4315 64.2832 90.1905 64.0973 90.0635 64.2376Z" fill="#DF8370"/>
<path d="M97.1046 63.6666C95.1603 63.833 93.2421 64.1494 91.35 64.6322C91.236 64.6616 91.2848 64.8345 91.3988 64.8084C93.2812 64.3908 95.1831 64.107 97.1046 63.9765C97.3065 63.9635 97.3033 63.6503 97.1046 63.6666Z" fill="#DF8370"/>
<path d="M81.7491 63.6666C83.6934 63.833 85.6116 64.1494 87.5037 64.6322C87.6177 64.6616 87.5689 64.8345 87.4549 64.8084C85.5725 64.3908 83.6706 64.107 81.7491 63.9765C81.5504 63.9635 81.5504 63.6503 81.7491 63.6666Z" fill="#DF8370"/>
<path d="M82.0844 36.8095C79.365 38.3688 77.4501 40.8252 77.4175 44.1265C77.3849 47.8486 81.9118 53.7759 81.8499 53.6291C80.3453 50.0081 79.9512 45.0236 83.7062 42.5281C84.0808 42.2801 84.5497 42.1366 84.8852 41.8463C84.8754 39.8792 83.7909 37.9741 82.0844 36.8095Z" fill="#3F4553"/>
<path d="M96.5049 36.8095C99.2243 38.3688 101.139 40.8252 101.172 44.1265C101.204 47.8486 98.98 51.1596 96.7654 53.9716C97.3289 52.745 98.6348 45.0203 94.8798 42.5281C94.5053 42.2801 94.0363 42.1366 93.7009 41.8463C93.7139 39.8792 94.8016 37.9741 96.5049 36.8095Z" fill="#424495"/>
<path d="M135.55 34.8393C133.473 33.8052 131.046 33.5834 128.786 34.0433C127.692 34.2651 126.656 34.6533 125.669 35.1785C125.015 35.5243 124.35 36.0202 123.588 36.0789C122.663 36.1474 121.853 35.5439 121.165 35.0089C119.029 33.3452 116.857 31.887 114.108 31.4858C112.779 31.2901 111.294 31.4336 110.265 32.2491C109.21 30.853 107.637 29.858 105.904 29.4926C103.612 29.0099 101.433 29.6982 99.6319 31.0813C98.6158 30.5822 96.8376 29.8645 96.6129 29.8025C89.8389 27.9366 80.5898 32.67 81.7882 40.6524C82.8174 47.5126 91.49 50.6834 97.4987 49.2742C98.7949 51.7306 101.902 52.3014 104.296 51.0227C104.478 51.163 104.66 51.3032 104.846 51.4402C108.666 54.2457 113.111 56.0692 117.912 55.2406C119.736 54.9242 121.442 54.2652 123.012 53.3192C124.504 54.4414 126.467 54.797 128.275 53.9292C129.62 53.2866 130.522 52.0992 130.844 50.7552C130.867 50.7552 130.89 50.7552 130.913 50.7552C134.905 50.7063 139.139 48.7196 140.159 44.5278C141.087 40.7176 139.022 36.5649 135.55 34.8393Z" fill="#4E5567"/>
<path d="M117.397 33.5965C118.71 34.6697 119.488 36.1409 118.671 37.7622C118.006 39.0834 116.811 40.0457 115.941 41.2168C114.922 42.5869 114.746 44.3452 116.417 45.3466C118.062 46.3318 120.123 45.1052 121.494 44.1755C123.188 43.024 125.005 39.6934 126.464 38.2646C132.945 31.9197 139.38 38.7017 139.406 38.7245C138.566 37.0739 137.224 35.6744 135.55 34.8393C133.472 33.8052 131.046 33.5834 128.786 34.0434C127.692 34.2652 126.656 34.6534 125.669 35.1786C125.015 35.5244 124.35 36.0202 123.588 36.0789C122.663 36.1474 121.852 35.5439 121.165 35.009C119.029 33.3453 116.857 31.8871 114.108 31.4859C112.808 31.2967 111.359 31.4337 110.333 32.2035C112.571 31.3325 115.603 32.1252 117.397 33.5965Z" fill="#3F4553"/>
<path d="M134.658 49.6788C133.072 49.8647 131.587 49.7767 130.128 49.1275C129.499 50.7618 128.213 52.4125 126.395 52.6702C125.174 52.8431 123.731 52.4614 123.481 51.1663C114.896 58.1669 105.272 50.3573 104.344 48.8926C101.667 50.6411 98.2931 48.5077 97.2932 45.7773C95.2545 46.57 92.9032 46.3253 90.9231 45.4739C87.2332 43.8918 85.188 39.5303 86.4777 35.681C87.5524 32.4809 90.415 30.292 93.5871 29.4014C87.4026 29.3655 80.7621 33.8151 81.788 40.6525C82.8171 47.5127 91.4865 50.6835 97.4984 49.2743C98.7946 51.7307 101.902 52.3016 104.295 51.0228C104.478 51.1631 104.66 51.3033 104.846 51.4404C108.666 54.2458 113.111 56.0693 117.912 55.2407C119.735 54.9243 121.442 54.2654 123.012 53.3193C124.503 54.4415 126.467 54.7971 128.274 53.9294C129.62 53.2867 130.522 52.0993 130.844 50.7553C130.867 50.7553 130.89 50.7553 130.912 50.7553C132.818 50.7325 134.775 50.266 136.416 49.333C135.84 49.5059 135.241 49.6103 134.658 49.6788Z" fill="#3F4553"/>
<path d="M87.142 51.7861C86.0022 51.9753 84.1491 52.0373 83.0972 50.9086C82.8887 50.6835 82.6054 50.9379 82.8659 51.163C82.9083 51.1989 82.9506 51.2315 82.9929 51.2641C82.8692 51.3 82.7389 51.3163 82.6021 51.3065C82.5989 51.3065 82.5989 51.3098 82.6021 51.3131C82.7682 51.3685 82.9376 51.3848 83.1037 51.3522C83.1069 51.3555 83.1102 51.3587 83.1135 51.3587C82.9702 51.4533 82.7975 51.4925 82.6282 51.5479C82.6249 51.5479 82.6249 51.5512 82.6282 51.5545C82.8366 51.574 83.0548 51.5479 83.2274 51.437C83.247 51.4501 83.2665 51.4566 83.2861 51.4696C83.1558 51.5708 83.0092 51.6458 82.8431 51.6849C82.8269 51.6882 82.8301 51.7143 82.8464 51.7143C83.0581 51.7241 83.26 51.6719 83.4294 51.5545C83.4652 51.574 83.5043 51.5903 83.5401 51.6099C83.4196 51.698 83.2958 51.7763 83.1558 51.8415C83.1428 51.8481 83.1493 51.8709 83.1623 51.8709C83.3479 51.8774 83.5108 51.7828 83.6573 51.6719C83.7029 51.6947 83.7485 51.711 83.7974 51.7306C83.7355 51.7926 83.6638 51.8513 83.5954 51.91C83.5857 51.9198 83.5954 51.9329 83.6085 51.9329C83.7257 51.9035 83.8332 51.8546 83.9244 51.7861C84.9698 52.2167 86.1943 52.2297 87.243 51.8513C87.3537 51.8056 87.269 51.7665 87.142 51.7861Z" fill="#3F4553"/>
<path d="M91.8219 51.7861C92.9618 51.9753 94.8149 52.0373 95.8668 50.9086C96.0752 50.6835 96.3585 50.9379 96.098 51.163C96.0557 51.1989 96.0133 51.2315 95.971 51.2641C96.098 51.3 96.225 51.3163 96.3618 51.3065C96.3651 51.3065 96.3651 51.3098 96.3618 51.3131C96.1957 51.3685 96.0264 51.3848 95.8603 51.3522C95.857 51.3555 95.8538 51.3587 95.8505 51.3587C95.9938 51.4533 96.1664 51.4925 96.3357 51.5479C96.339 51.5479 96.339 51.5512 96.3357 51.5545C96.1273 51.574 95.9091 51.5479 95.7365 51.437C95.717 51.4501 95.6974 51.4566 95.6779 51.4696C95.8082 51.5708 95.9547 51.6458 96.1208 51.6849C96.1371 51.6882 96.1338 51.7143 96.1175 51.7143C95.9059 51.7241 95.7039 51.6719 95.5346 51.5545C95.4988 51.574 95.4597 51.5903 95.4239 51.6099C95.5444 51.698 95.6681 51.7763 95.8082 51.8415C95.8212 51.8481 95.8147 51.8709 95.8016 51.8709C95.616 51.8774 95.4532 51.7828 95.3066 51.6719C95.261 51.6947 95.2154 51.711 95.1698 51.7306C95.2317 51.7926 95.3034 51.8513 95.3718 51.91C95.3815 51.9198 95.3718 51.9329 95.3587 51.9329C95.2415 51.9035 95.134 51.8546 95.0428 51.7861C93.9974 52.2167 92.7729 52.2297 91.721 51.8513C91.6135 51.8056 91.6949 51.7665 91.8219 51.7861Z" fill="#3F4553"/>
<path d="M90.2001 54.1642C89.666 54.4415 89.1352 54.5524 88.5848 54.2197C88.5457 54.1968 88.5001 54.2523 88.5359 54.2849C89.0082 54.7057 89.8484 54.8134 90.3206 54.3208C90.3988 54.236 90.3011 54.112 90.2001 54.1642Z" fill="#3F4553"/>
<path d="M91.4213 56.0887C90.7536 56.2877 90.0958 56.3627 89.4444 56.3334C88.7931 56.3627 88.1352 56.2877 87.4676 56.0887C87.4513 56.0822 87.4383 56.1115 87.4546 56.1181C88.0961 56.3921 88.7703 56.5389 89.4444 56.5552C90.1186 56.5389 90.7927 56.3921 91.4343 56.1181C91.4506 56.1115 91.4375 56.0854 91.4213 56.0887Z" fill="#3F4553"/>
<path d="M86.383 53.3845C86.3277 53.3584 86.2691 53.3356 86.2104 53.3193C85.4647 53.1268 84.5821 52.7615 83.8037 52.8952C83.2533 52.9898 83.1263 53.6586 83.439 54.0533C83.7744 54.4773 84.4323 54.598 84.9403 54.6372C85.4516 54.6763 86.2528 54.7318 86.6338 54.3306C86.979 53.9685 86.7445 53.5607 86.383 53.3845Z" fill="#FBAD8B"/>
<path d="M92.4794 53.3845C92.5348 53.3584 92.5934 53.3356 92.6521 53.3193C93.3978 53.1268 94.2804 52.7615 95.0588 52.8952C95.6092 52.9898 95.7362 53.6586 95.4235 54.0533C95.0881 54.4773 94.4302 54.598 93.9222 54.6372C93.4109 54.6763 92.6097 54.7318 92.2287 54.3306C91.8835 53.9685 92.1212 53.5607 92.4794 53.3845Z" fill="#FBAD8B"/>
<path d="M79.5931 48.501C78.8213 48.3868 77.994 48.7065 78.1341 49.6232C78.2448 50.3539 79.0297 51.0814 80.2282 50.8628C79.9025 50.106 79.6778 49.31 79.5931 48.501Z" fill="#F9CDB9"/>
<path d="M78.8472 49.2188C79.0589 49.0426 79.3879 48.9643 79.6712 49.01C79.6549 48.9219 79.6451 48.8306 79.6321 48.7425C79.2446 48.7066 78.7886 48.8665 78.5672 49.147C78.2219 49.5874 78.4825 50.0767 78.8635 50.3768C78.9189 50.4225 78.997 50.3507 78.9449 50.2953C78.6681 50.0017 78.476 49.5287 78.8472 49.2188Z" fill="#F8C4AB"/>
<path d="M79.8244 49.708C79.6225 49.5253 79.3587 49.4242 79.0558 49.4372C78.9874 49.4405 78.9614 49.5547 79.0395 49.5645C79.3163 49.6036 79.5541 49.7471 79.7006 49.969C79.5313 50.0603 79.4075 50.2593 79.5801 50.4224C79.7169 50.5529 79.9188 50.5822 80.111 50.5627C80.0035 50.2821 79.9025 49.9983 79.8244 49.708Z" fill="#F8C4AB"/>
<path d="M79.5248 50.6508C79.5216 50.6475 79.5151 50.6508 79.5183 50.654C79.6421 50.9607 79.818 51.6783 79.3946 51.8251C79.1112 51.923 79.0852 51.5576 79.1275 51.3652C79.1666 51.189 79.2643 51.0063 79.3457 50.8498C79.3457 50.8498 79.1503 50.8073 78.9712 50.716C78.7269 50.9248 78.639 51.2347 78.6814 51.5609C78.7204 51.8578 78.9093 52.184 79.2448 52.1938C79.5444 52.2035 79.7593 51.9458 79.8049 51.6718C79.857 51.3162 79.7137 50.9411 79.5248 50.6508Z" fill="#FDCA27"/>
<path d="M141.845 106.831C140.015 104.649 136.055 104.473 133.456 104.202C125.643 103.386 117.632 103.589 109.815 104.221C105.924 104.538 102.051 105.011 98.1955 105.634C95.4044 106.087 92.2878 106.404 89.5 107.298C86.7122 106.404 83.5955 106.084 80.8045 105.634C76.9518 105.008 73.0763 104.535 69.1845 104.221C61.3684 103.589 53.3536 103.386 45.5439 104.202C42.9483 104.473 38.9849 104.649 37.1546 106.831C35.3862 108.938 37.5682 111.493 39.2487 112.833C41.5707 114.686 44.5181 115.6 47.3319 116.399C50.8654 117.397 54.4804 118.076 58.1149 118.591C74.3823 120.888 83.2145 119.195 91.7178 119.09C92.0435 119.504 92.3496 119.935 92.6297 120.382C101.25 120.437 112.323 119.749 120.882 118.591C124.52 118.099 128.131 117.4 131.665 116.399C134.482 115.603 137.426 114.69 139.748 112.833C141.429 111.493 143.611 108.938 141.845 106.831Z" fill="#93BFA8"/>
<path d="M130.303 108.342C130.574 107.996 132.212 107.568 132.857 107.281C129.818 107.526 126.767 107.891 123.735 108.205C117.967 108.798 112.193 110.328 106.728 112.243C104.113 113.16 101.504 114.122 98.9054 115.088C96.8471 115.851 94.8117 116.686 92.8804 117.727C93.1768 117.635 93.4732 117.544 93.7695 117.456C96.8504 116.549 109.405 109.748 132.652 108.909C132.114 108.792 130.199 108.475 130.303 108.342Z" fill="#66A986"/>
<path d="M49.0384 107.862C48.7681 107.516 47.1299 107.089 46.4851 106.802C49.5236 107.046 52.5752 107.412 55.6072 107.725C61.3749 108.319 67.149 109.849 72.6138 111.763C75.229 112.68 77.8376 113.642 80.4365 114.608C82.4948 115.371 84.5302 116.206 86.4614 117.247C86.1651 117.156 85.8687 117.064 85.5724 116.976C82.4915 116.069 69.9368 109.268 46.6903 108.43C47.2244 108.312 49.1393 107.996 49.0384 107.862Z" fill="#66A986"/>
<path d="M97.3585 115.075C96.0493 114.549 94.6652 114.536 93.3918 115.081C91.2163 116.017 88.5491 114.582 86.2889 114.84C84.2079 115.078 82.941 117.449 84.5335 118.963C84.9178 119.328 88.7803 120.731 94.8997 117.874C95.5706 117.56 96.2252 117.381 96.984 117.391C97.1599 117.394 97.326 117.56 97.5116 117.541C97.9089 117.492 98.2346 117.42 98.4561 117.035C98.9771 116.128 98.1076 115.375 97.3585 115.075Z" fill="#FDB597"/>
<path d="M82.0844 119.886C83.1884 119.009 84.5139 118.598 85.885 118.758C88.2363 119.032 90.3825 116.892 92.6231 116.49C94.6846 116.122 96.5768 118.03 95.4825 119.942C95.2187 120.402 91.9164 122.852 85.2369 121.866C84.5041 121.759 83.8267 121.775 83.1037 122C82.9376 122.052 82.8236 122.261 82.638 122.294C82.2439 122.362 81.9117 122.385 81.5893 122.082C80.8338 121.361 81.4526 120.389 82.0844 119.886Z" fill="#FDBCA0"/>
<path d="M126.467 66.2959C125.714 66.6841 124.923 67.1212 124.184 67.529C124.575 67.2093 126.744 64.9976 127.587 64.4528C127.678 64.3941 127.463 63.497 125.245 65.2716C124.584 65.8 123.803 66.335 123.181 66.9124C123.972 65.4086 124.633 63.8852 125.669 62.5086C125.711 62.4531 125.698 62.3911 125.662 62.3487C125.451 62.1823 124.92 62.3715 124.682 62.626C124.259 63.0762 122.65 64.8181 121.868 66.6547C121.881 66.0251 121.826 65.0041 121.38 64.7953C121.1 64.6616 120.634 64.8377 120.334 64.8605C119.745 64.903 118.973 64.9878 118.423 64.7529C118.341 64.7203 118.136 64.6942 118.211 64.9649C118.462 65.8522 119.699 65.9631 120.468 66.1589C120.728 66.7917 119.996 67.8291 119.533 68.1422C118.781 68.6544 117.683 68.152 117.872 67.1473C118.038 66.2633 118.566 65.862 118.1 64.9943C117.947 64.7072 117.289 64.4463 117.436 64.9095C117.814 66.0936 116.729 67.0886 116.589 68.2336C116.478 69.1405 116.957 69.9462 117.439 70.6737C117.41 70.7487 117.387 70.8237 117.361 70.8955C116.706 72.0307 116.198 73.2279 115.83 74.4806C116.67 74.7578 119.139 74.5817 119.129 74.5621C119.139 74.5817 119.426 72.8267 120.084 72.0862C120.803 71.2739 121.709 70.6476 122.575 70.0082C124.395 68.6609 126.245 67.3528 128.121 66.0806C128.229 66.0121 128.141 65.4314 126.467 66.2959Z" fill="#FDBCA0"/>
<path d="M52.7314 66.2959C53.4837 66.6841 54.2751 67.1212 55.0144 67.529C54.6236 67.2093 52.4546 64.9976 51.6111 64.4528C51.5199 64.3941 51.7349 63.497 53.9527 65.2716C54.6138 65.8 55.3954 66.335 56.0175 66.9124C55.2261 65.4086 54.565 63.8852 53.5293 62.5086C53.487 62.4531 53.5 62.3911 53.5358 62.3487C53.7475 62.1823 54.2784 62.3715 54.5161 62.626C54.9395 63.0762 56.5483 64.8181 57.3299 66.6547C57.3169 66.0251 57.3723 65.0041 57.8184 64.7953C58.0985 64.6616 58.5642 64.8377 58.8638 64.8605C59.4533 64.903 60.2251 64.9878 60.7755 64.7529C60.857 64.7203 61.0621 64.6942 60.9872 64.9649C60.7365 65.8522 59.4989 65.9631 58.7303 66.1589C58.4698 66.7917 59.2025 67.8291 59.665 68.1422C60.4173 68.6544 61.5148 68.152 61.3259 67.1473C61.1598 66.2633 60.6322 65.862 61.098 64.9943C61.251 64.7072 61.9089 64.4463 61.7623 64.9095C61.3845 66.0936 62.469 67.0886 62.6091 68.2336C62.7198 69.1405 62.2411 69.9462 61.7591 70.6737C61.7884 70.7487 61.8112 70.8237 61.8372 70.8955C62.4918 72.0307 62.9999 73.2279 63.3679 74.4806C62.5277 74.7578 60.0591 74.5817 60.0688 74.5621C60.0591 74.5817 59.7725 72.8267 59.1146 72.0862C58.3949 71.2739 57.4895 70.6476 56.6232 70.0082C54.8027 68.6609 52.9529 67.3528 51.077 66.0806C50.9695 66.0121 51.0575 65.4314 52.7314 66.2959Z" fill="#FDBCA0"/>
<path d="M114.951 73.3258C113.73 76.4803 109.588 88.1261 107.858 93.065C106.829 90.4226 104.048 78.9497 101.706 65.6305C100.977 61.4908 96.3164 62.0813 93.8218 62.4956C93.6426 65.2749 90.9493 72.98 89.5033 72.9964C88.0574 72.98 85.1914 65.8197 85.1849 62.4956C82.6935 62.0813 78.0299 61.4908 77.3004 65.6305C74.9555 78.9497 72.1776 90.4259 71.1484 93.065C69.4158 88.1261 65.2765 76.4803 64.0553 73.3258C62.4888 74.0663 60.7562 74.4741 59.0269 74.5752C60.3654 78.1407 64.7848 103.39 71.2982 103.39C74.1218 103.39 75.9098 100.385 78.7887 89.2548C78.932 91.1142 78.9809 94.6862 78.9092 98.441C78.8571 101.145 76.991 104.27 74.4931 103.667C73.9883 103.546 73.3304 103.928 73.9557 104.606C74.1251 104.792 74.3433 104.929 74.568 105.034C78.5575 106.926 78.7138 109.754 81.0684 111.401C82.4916 112.396 84.2437 112.709 85.9144 113.049C87.7252 113.414 89.5913 113.688 91.4346 113.411C94.4992 112.951 96.8798 110.899 99.4168 109.294C100.834 108.397 102.273 107.679 103.937 107.435C108.22 106.805 107.936 103.778 107.041 103.84C104.041 104.045 100.091 100.216 100.068 96.0009C100.052 93.1955 100.107 90.7064 100.218 89.2548C103.097 100.385 104.885 103.39 107.708 103.39C114.222 103.39 118.641 78.1407 119.98 74.5752C118.25 74.4741 116.518 74.0631 114.951 73.3258Z" fill="#F2EDE4"/>
<path d="M97.7203 84.3518C97.6877 84.3746 97.6616 84.3974 97.6356 84.4203C97.1047 84.939 96.6911 85.562 96.17 86.0905C95.649 86.6157 94.9748 87.0561 94.2355 87.0528C92.4606 87.043 91.5715 84.9096 90.5033 83.8233C88.8619 82.1596 87.2694 85.9502 86.0481 86.694C84.7943 87.4573 83.9443 86.9974 83.0194 86.0937C82.4527 85.5392 81.9707 84.9161 81.4464 84.3224C81.3096 84.1658 80.9969 84.3322 81.0816 84.5344C81.6939 86.0089 83.078 88.4555 84.905 88.4947C86.0253 88.5175 86.9437 87.8749 87.6797 87.0854C88.0412 86.6972 89.0378 84.6127 89.6859 84.8868C89.8064 84.939 89.8911 85.0466 89.9725 85.151C90.2949 85.5751 90.5945 86.022 90.9397 86.4265C91.1189 86.6353 91.6367 86.981 91.6367 87.2681C92.3694 88.0151 93.3758 88.6023 94.4147 88.4751C95.4764 88.3446 96.3166 87.5128 96.9321 86.6353C97.3685 86.0122 97.7365 85.3402 98.0264 84.6356C98.0687 84.5344 98.1045 84.4072 98.0296 84.3257C97.9482 84.2409 97.8245 84.28 97.7203 84.3518Z" fill="#D9C9AC"/>
<g clip-path="url(#clip2_362_8)">
<path d="M157.49 101.295L168.635 97.559L163.048 81.1592L151.903 84.8949C151.466 85.0406 151.229 85.5101 151.38 85.9432L156.433 100.773C156.58 101.206 157.053 101.44 157.49 101.295Z" fill="#3F4553"/>
<path d="M157.498 100.971L168.921 97.1421L163.538 81.3454L152.115 85.1742C151.833 85.2673 151.682 85.5708 151.776 85.8541L156.812 100.635C156.91 100.914 157.216 101.064 157.498 100.971Z" fill="#DDDDE3"/>
<path d="M157.739 100.89L169.162 97.0613L163.779 81.2646L152.356 85.0934C152.074 85.1864 151.923 85.49 152.017 85.7733L157.053 100.554C157.151 100.833 157.457 100.987 157.739 100.89Z" fill="#E2E5FF"/>
<path d="M158.355 101.003L169.5 97.2675L163.913 80.8718L152.768 84.6075C152.331 84.7532 152.094 85.2227 152.245 85.6558L157.298 100.485C157.445 100.918 157.918 101.149 158.355 101.003Z" fill="#4E5567"/>
<path d="M163.289 81.0813L163.049 81.1617L168.636 97.5615L168.876 97.4812L163.289 81.0813Z" fill="#3F4553"/>
<path d="M164.881 93.8921L165.13 93.3659L165.652 93.633L161.571 81.657C161.497 81.4466 161.314 81.4627 161.102 81.5356C160.889 81.6084 160.73 81.7056 160.804 81.916L164.881 93.8921Z" fill="#93BFA8"/>
<path d="M139.838 85.4296L147.34 76.6093L145.823 75.3411L138.322 84.1615L139.838 85.4296Z" fill="#3F4553"/>
<path d="M138.321 84.1585L139.835 85.4253L137.647 86.6193C137.574 86.6597 137.476 86.5747 137.5 86.4978L138.321 84.1585Z" fill="#F2EDE4"/>
<path d="M137.651 86.6232L138.243 86.2994L137.729 85.8663L137.509 86.4977C137.48 86.5746 137.578 86.6596 137.651 86.6232Z" fill="#3F4553"/>
<path d="M139.336 85.0095L146.837 76.1891L146.322 75.7586L138.821 84.5789L139.336 85.0095Z" fill="#4E5567"/>
</g>
<g clip-path="url(#clip3_362_8)">
<path d="M57.0028 0.339386C47.3335 0.339386 39.5 8.1729 39.5 17.8421C39.5 27.5059 47.3335 35.3449 57.0028 35.3449C66.6665 35.3449 74.5055 27.5114 74.5055 17.8421C74.5 8.1729 66.6665 0.339386 57.0028 0.339386ZM57.0028 32.3846C48.9708 32.3846 42.4603 25.8741 42.4603 17.8421C42.4603 9.81017 48.9708 3.29969 57.0028 3.29969C65.0347 3.29969 71.5452 9.81017 71.5452 17.8421C71.5452 25.8741 65.0347 32.3846 57.0028 32.3846Z" fill="#808AFF"/>
<path d="M70.4209 23.4491C73.5195 16.0392 70.0244 7.52034 62.6145 4.42176C55.2046 1.32318 46.6857 4.81821 43.5872 12.2281C40.4886 19.6381 43.9836 28.1569 51.3936 31.2555C58.8035 34.3541 67.3223 30.859 70.4209 23.4491Z" fill="#AEB4FC"/>
<path d="M57.0311 4.60088C56.0113 4.60088 56.0058 6.18853 57.0311 6.18853C58.0565 6.18853 58.0565 4.60088 57.0311 4.60088Z" fill="#808AFF"/>
<path d="M70.2383 17.869C70.2383 16.8491 68.6506 16.8436 68.6506 17.869C68.6506 18.8944 70.2383 18.8944 70.2383 17.869Z" fill="#808AFF"/>
<path d="M56.969 31.0777C57.9888 31.0777 57.9943 29.4901 56.969 29.4901C55.9491 29.4901 55.9436 31.0777 56.969 31.0777Z" fill="#808AFF"/>
<path d="M43.7618 17.8092C43.7618 18.829 45.3495 18.8345 45.3495 17.8092C45.3495 16.7893 43.7618 16.7838 43.7618 17.8092Z" fill="#808AFF"/>
<path d="M63.2544 22.0924C63.1607 22.0924 63.067 22.0703 62.9843 22.0152L56.7274 18.2942C56.5675 18.2004 56.4683 18.024 56.4683 17.8366V7.83661C56.4683 7.54443 56.7053 7.30739 56.9975 7.30739C57.2897 7.30739 57.5267 7.54443 57.5267 7.83661V17.5389L63.5245 21.1056C63.7781 21.2545 63.8608 21.5797 63.7064 21.8333C63.6127 21.9987 63.4363 22.0924 63.2544 22.0924Z" fill="#808AFF"/>
</g>
<path d="M22.1207 53.7459L21.7715 51.7649L19.7463 52.11C19.425 51.1851 18.9013 50.3706 18.2239 49.708L19.4111 48.0445L17.749 46.8917L16.5688 48.5483C15.7168 48.1342 14.7671 47.9064 13.7754 47.9133L13.4193 45.9047L11.415 46.2498L11.7642 48.2515C10.8284 48.569 10.0043 49.0867 9.33392 49.7563L7.65091 48.5829L6.48467 50.2256L8.1607 51.3922C7.74169 52.2343 7.51124 53.173 7.51822 54.1532L5.5 54.4983L5.84917 56.4793L7.87438 56.1342C8.19562 57.0591 8.71938 57.8736 9.39677 58.5363L8.20959 60.1998L9.87165 61.3525L11.0519 59.6959C11.9038 60.11 12.8536 60.3378 13.8452 60.3309L14.2014 62.3396L16.2057 61.9944L15.8565 59.9927C16.7923 59.6752 17.6163 59.1575 18.2867 58.488L19.9697 59.6614L21.136 58.0186L19.46 56.8521C19.879 56.01 20.1094 55.0712 20.1024 54.0911L22.1207 53.7459ZM14.1316 55.9616C13.105 56.1411 12.1273 55.4578 11.9457 54.4431C11.7642 53.4284 12.4555 52.4621 13.4821 52.2826C14.5087 52.1031 15.4864 52.7865 15.6679 53.8012C15.8495 54.8158 15.1651 55.7822 14.1316 55.9616Z" fill="#9BA3FF"/>
<path d="M41.2278 49.7492V47.2574H38.6788C38.4903 46.0564 38.0224 44.952 37.338 43.9994L39.1467 42.2117L37.3659 40.4516L35.5642 42.2324C34.6074 41.5491 33.4971 41.0728 32.282 40.8726V38.3394H29.7609V40.8588C28.5458 41.0452 27.4215 41.5076 26.4647 42.1841L24.656 40.3963L22.8752 42.1565L24.677 43.9373C23.9856 44.883 23.5037 45.9805 23.3012 47.1815H20.7383V49.6733H23.2872C23.4758 50.8743 23.9437 51.9787 24.6281 52.9313L22.8194 54.719L24.6001 56.4792L26.4019 54.6983C27.3586 55.3817 28.469 55.858 29.6841 56.0581V58.5914H32.2051V56.0719C33.4203 55.8856 34.5376 55.4231 35.5013 54.7467L37.31 56.5344L39.0908 54.7743L37.2891 52.9934C37.9805 52.0478 38.4623 50.9503 38.6648 49.7492H41.2278V49.7492ZM30.983 50.7846C29.6911 50.7846 28.6366 49.7492 28.6366 48.4654C28.6366 47.1884 29.6841 46.1461 30.983 46.1461C32.275 46.1461 33.3295 47.1815 33.3295 48.4654C33.3225 49.7423 32.275 50.7846 30.983 50.7846Z" fill="#AEB4FC"/>
<g opacity="0.3">
<path d="M159.495 31.2365L140.766 27.0271C140.582 26.987 140.466 26.8036 140.509 26.6201L142.867 16.1199C142.907 15.9364 143.091 15.8197 143.274 15.8631L162.003 20.0758C162.187 20.1159 162.303 20.2993 162.26 20.4828L159.898 30.983C159.858 31.1631 159.678 31.2799 159.495 31.2365Z" fill="#ECECEC"/>
<path d="M140.819 26.7802C140.769 26.7702 140.739 26.7202 140.753 26.6735L143.114 16.1732C143.124 16.1232 143.174 16.0932 143.221 16.1065L161.95 20.3193C162 20.3293 162.03 20.3793 162.017 20.426L159.655 30.9263C159.645 30.9763 159.595 31.0063 159.548 30.993L140.819 26.7802Z" fill="#F5F4F5"/>
<path d="M159.367 19.48L145.914 16.4547L145.859 16.6987L159.312 19.724L159.367 19.48Z" fill="#706F6E"/>
<path d="M144.605 17.9644L143.985 17.8243C143.908 17.8076 143.858 17.7309 143.875 17.6508L143.971 17.2139C143.988 17.1372 144.065 17.0871 144.145 17.1038L144.765 17.2439C144.842 17.2606 144.892 17.3373 144.875 17.4173L144.779 17.8543C144.759 17.931 144.682 17.981 144.605 17.9644Z" fill="#585857"/>
<path d="M144.011 17.7009C144.001 17.6976 143.994 17.6876 143.998 17.6776L144.094 17.2406C144.098 17.2306 144.108 17.2239 144.118 17.2273L144.738 17.3674C144.748 17.3707 144.755 17.3807 144.752 17.3907L144.655 17.8277C144.652 17.8377 144.642 17.8443 144.632 17.841L144.011 17.7009Z" fill="#5E5E5D"/>
<path d="M145.742 18.218L145.122 18.0779C145.045 18.0612 144.995 17.9845 145.012 17.9044L145.109 17.4675C145.125 17.3908 145.202 17.3407 145.282 17.3574L145.902 17.4975C145.979 17.5142 146.029 17.5909 146.012 17.6709L145.916 18.1079C145.896 18.1879 145.819 18.2346 145.742 18.218Z" fill="#585857"/>
<path d="M145.149 17.9576C145.139 17.9543 145.132 17.9443 145.135 17.9343L145.232 17.4973C145.235 17.4873 145.245 17.4806 145.255 17.484L145.876 17.6241C145.886 17.6274 145.892 17.6374 145.889 17.6474L145.792 18.0844C145.789 18.0944 145.779 18.101 145.769 18.0977L145.149 17.9576Z" fill="#5E5E5D"/>
<path d="M146.88 18.4747L146.259 18.3346C146.183 18.3179 146.133 18.2412 146.149 18.1612L146.246 17.7242C146.263 17.6475 146.339 17.5974 146.42 17.6141L147.04 17.7542C147.117 17.7709 147.167 17.8476 147.15 17.9277L147.053 18.3646C147.033 18.4413 146.957 18.4914 146.88 18.4747Z" fill="#585857"/>
<path d="M146.286 18.2112C146.276 18.2079 146.269 18.1979 146.273 18.1879L146.37 17.7509C146.373 17.7409 146.383 17.7342 146.393 17.7376L147.013 17.8777C147.023 17.881 147.03 17.891 147.027 17.901L146.93 18.338C146.927 18.348 146.917 18.3546 146.907 18.3513L146.286 18.2112Z" fill="#5E5E5D"/>
<path d="M148.017 18.7281L147.397 18.588C147.32 18.5713 147.27 18.4946 147.287 18.4145L147.384 17.9776C147.4 17.9009 147.477 17.8508 147.557 17.8675L148.177 18.0076C148.254 18.0243 148.304 18.101 148.287 18.181L148.191 18.618C148.171 18.698 148.094 18.7481 148.017 18.7281Z" fill="#585857"/>
<path d="M147.424 18.468C147.414 18.4646 147.407 18.4546 147.41 18.4446L147.507 18.0076C147.51 17.9976 147.52 17.991 147.53 17.9943L148.151 18.1344C148.161 18.1377 148.167 18.1477 148.164 18.1577L148.067 18.5947C148.064 18.6047 148.054 18.6114 148.044 18.608L147.424 18.468Z" fill="#5E5E5D"/>
<path d="M149.151 18.985L148.531 18.8449C148.454 18.8283 148.404 18.7515 148.421 18.6715L148.518 18.2345C148.534 18.1578 148.611 18.1078 148.691 18.1245L149.311 18.2645C149.388 18.2812 149.438 18.3579 149.421 18.438L149.325 18.8749C149.308 18.955 149.231 19.0017 149.151 18.985Z" fill="#585857"/>
<path d="M148.561 18.7249C148.551 18.7216 148.544 18.7116 148.548 18.7015L148.645 18.2646C148.648 18.2546 148.658 18.2479 148.668 18.2512L149.288 18.3913C149.298 18.3947 149.305 18.4047 149.302 18.4147L149.205 18.8516C149.202 18.8616 149.192 18.8683 149.182 18.865L148.561 18.7249Z" fill="#5E5E5D"/>
<path d="M150.289 19.2417L149.668 19.1016C149.592 19.085 149.542 19.0082 149.558 18.9282L149.655 18.4912C149.672 18.4145 149.748 18.3645 149.829 18.3812L150.449 18.5213C150.526 18.5379 150.576 18.6147 150.559 18.6947L150.462 19.1317C150.446 19.2084 150.369 19.2584 150.289 19.2417Z" fill="#585857"/>
<path d="M149.698 18.9783C149.688 18.9749 149.682 18.9649 149.685 18.9549L149.782 18.518C149.785 18.508 149.795 18.5013 149.805 18.5046L150.425 18.6447C150.435 18.648 150.442 18.6581 150.439 18.6681L150.342 19.105C150.339 19.115 150.329 19.1217 150.319 19.1184L149.698 18.9783Z" fill="#5E5E5D"/>
<path d="M151.426 19.4953L150.806 19.3552C150.729 19.3386 150.679 19.2618 150.696 19.1818L150.793 18.7448C150.809 18.6681 150.886 18.6181 150.966 18.6348L151.586 18.7749C151.663 18.7915 151.713 18.8683 151.696 18.9483L151.6 19.3853C151.583 19.4653 151.503 19.5153 151.426 19.4953Z" fill="#585857"/>
<path d="M150.836 19.2352C150.826 19.2319 150.819 19.2219 150.822 19.2119L150.919 18.7749C150.922 18.7649 150.933 18.7582 150.943 18.7616L151.563 18.9017C151.573 18.905 151.58 18.915 151.576 18.925L151.48 19.362C151.476 19.372 151.466 19.3787 151.456 19.3753L150.836 19.2352Z" fill="#5E5E5D"/>
<path d="M152.564 19.7523L151.943 19.6122C151.867 19.5955 151.817 19.5188 151.833 19.4387L151.93 19.0018C151.947 18.9251 152.024 18.875 152.104 18.8917L152.724 19.0318C152.801 19.0485 152.851 19.1252 152.834 19.2053L152.737 19.6422C152.717 19.7223 152.641 19.769 152.564 19.7523Z" fill="#585857"/>
<path d="M151.973 19.4919C151.963 19.4886 151.957 19.4786 151.96 19.4686L152.057 19.0316C152.06 19.0216 152.07 19.015 152.08 19.0183L152.7 19.1584C152.71 19.1617 152.717 19.1717 152.714 19.1817L152.617 19.6187C152.614 19.6287 152.604 19.6354 152.594 19.632L151.973 19.4919Z" fill="#5E5E5D"/>
<path d="M153.701 20.009L153.081 19.8689C153.004 19.8522 152.954 19.7755 152.971 19.6955L153.068 19.2585C153.084 19.1818 153.161 19.1318 153.241 19.1484L153.861 19.2885C153.938 19.3052 153.988 19.3819 153.972 19.462L153.875 19.8989C153.855 19.9757 153.778 20.0257 153.701 20.009Z" fill="#585857"/>
<path d="M153.107 19.7455C153.097 19.7422 153.091 19.7322 153.094 19.7222L153.191 19.2852C153.194 19.2752 153.204 19.2686 153.214 19.2719L153.834 19.412C153.844 19.4153 153.851 19.4253 153.848 19.4353L153.751 19.8723C153.748 19.8823 153.738 19.889 153.728 19.8856L153.107 19.7455Z" fill="#5E5E5D"/>
<path d="M154.838 20.2626L154.218 20.1225C154.141 20.1058 154.091 20.0291 154.108 19.9491L154.205 19.5121C154.221 19.4354 154.298 19.3854 154.378 19.402L154.999 19.5421C155.075 19.5588 155.125 19.6355 155.109 19.7156L155.012 20.1525C154.992 20.2326 154.915 20.2826 154.838 20.2626Z" fill="#585857"/>
<path d="M154.245 20.0025C154.235 19.9991 154.228 19.9891 154.231 19.9791L154.328 19.5422C154.331 19.5322 154.342 19.5255 154.352 19.5288L154.972 19.6689C154.982 19.6723 154.989 19.6823 154.985 19.6923L154.889 20.1292C154.885 20.1392 154.875 20.1459 154.865 20.1426L154.245 20.0025Z" fill="#5E5E5D"/>
<path d="M155.976 20.5193L155.356 20.3792C155.279 20.3626 155.229 20.2859 155.245 20.2058L155.342 19.7688C155.359 19.6921 155.436 19.6421 155.516 19.6588L156.136 19.7989C156.213 19.8155 156.263 19.8923 156.246 19.9723L156.149 20.4093C156.129 20.4893 156.053 20.536 155.976 20.5193Z" fill="#585857"/>
<path d="M155.382 20.2592C155.372 20.2559 155.365 20.2459 155.368 20.2359L155.465 19.7989C155.469 19.7889 155.479 19.7822 155.489 19.7856L156.109 19.9257C156.119 19.929 156.126 19.939 156.122 19.949L156.026 20.386C156.022 20.396 156.012 20.4026 156.002 20.3993L155.382 20.2592Z" fill="#5E5E5D"/>
<path d="M157.113 20.7763L156.493 20.6362C156.416 20.6195 156.366 20.5428 156.383 20.4627L156.479 20.0258C156.496 19.9491 156.573 19.899 156.653 19.9157L157.273 20.0558C157.35 20.0725 157.4 20.1492 157.383 20.2293L157.287 20.6662C157.266 20.7429 157.19 20.793 157.113 20.7763Z" fill="#585857"/>
<path d="M156.519 20.5126C156.509 20.5092 156.503 20.4992 156.506 20.4892L156.603 20.0523C156.606 20.0423 156.616 20.0356 156.626 20.0389L157.247 20.179C157.257 20.1824 157.263 20.1924 157.26 20.2024L157.163 20.6393C157.16 20.6493 157.15 20.656 157.14 20.6527L156.519 20.5126Z" fill="#5E5E5D"/>
<path d="M158.251 21.0297L157.63 20.8896C157.553 20.8729 157.503 20.7962 157.52 20.7161L157.617 20.2792C157.633 20.2024 157.71 20.1524 157.79 20.1691L158.411 20.3092C158.487 20.3259 158.537 20.4026 158.521 20.4826L158.424 20.9196C158.404 20.9996 158.327 21.0497 158.251 21.0297Z" fill="#585857"/>
<path d="M157.657 20.7695C157.647 20.7662 157.64 20.7562 157.644 20.7462L157.74 20.3092C157.744 20.2992 157.754 20.2926 157.764 20.2959L158.384 20.436C158.394 20.4393 158.401 20.4493 158.397 20.4593L158.301 20.8963C158.297 20.9063 158.287 20.913 158.277 20.9096L157.657 20.7695Z" fill="#5E5E5D"/>
<path d="M159.388 21.2864L158.768 21.1463C158.691 21.1296 158.641 21.0529 158.658 20.9728L158.754 20.5359C158.771 20.4592 158.848 20.4091 158.928 20.4258L159.548 20.5659C159.625 20.5826 159.675 20.6593 159.658 20.7394L159.562 21.1763C159.542 21.2564 159.465 21.3031 159.388 21.2864Z" fill="#585857"/>
<path d="M158.794 21.0265C158.784 21.0231 158.778 21.0131 158.781 21.0031L158.878 20.5662C158.881 20.5562 158.891 20.5495 158.901 20.5528L159.522 20.6929C159.532 20.6963 159.538 20.7063 159.535 20.7163L159.438 21.1532C159.435 21.1632 159.425 21.1699 159.415 21.1666L158.794 21.0265Z" fill="#5E5E5D"/>
<path d="M160.522 21.5433L159.902 21.4032C159.825 21.3866 159.775 21.3098 159.792 21.2298L159.888 20.7928C159.905 20.7161 159.982 20.6661 160.062 20.6828L160.682 20.8229C160.759 20.8395 160.809 20.9162 160.792 20.9963L160.695 21.4333C160.679 21.51 160.602 21.56 160.522 21.5433Z" fill="#585857"/>
<path d="M159.932 21.2799C159.922 21.2765 159.915 21.2665 159.919 21.2565L160.015 20.8196C160.019 20.8095 160.029 20.8029 160.039 20.8062L160.659 20.9463C160.669 20.9496 160.676 20.9596 160.672 20.9697L160.576 21.4066C160.572 21.4166 160.562 21.4233 160.552 21.4199L159.932 21.2799Z" fill="#5E5E5D"/>
<path d="M143.971 17.9745L144.738 18.1479C144.825 18.1679 144.882 18.2547 144.862 18.3447L144.692 19.0986C144.672 19.1853 144.585 19.242 144.495 19.222L143.728 19.0485C143.641 19.0285 143.584 18.9418 143.604 18.8517L143.774 18.0979C143.794 18.0112 143.881 17.9545 143.971 17.9745Z" fill="#585857"/>
<path d="M143.758 18.9249C143.738 18.9215 143.725 18.8982 143.728 18.8782L143.898 18.1243C143.901 18.1043 143.925 18.091 143.945 18.0943L144.712 18.2678C144.732 18.2711 144.745 18.2945 144.742 18.3145L144.572 19.0683C144.569 19.0883 144.545 19.1016 144.525 19.0983L143.758 18.9249Z" fill="#5E5E5D"/>
<path d="M145.282 18.2711L146.049 18.4445C146.136 18.4645 146.192 18.5513 146.172 18.6413L146.002 19.3952C145.982 19.4819 145.896 19.5386 145.806 19.5186L145.038 19.3451C144.952 19.3251 144.895 19.2384 144.915 19.1483L145.085 18.3945C145.105 18.3044 145.192 18.2511 145.282 18.2711Z" fill="#585857"/>
<path d="M145.069 19.2217C145.049 19.2184 145.035 19.195 145.039 19.175L145.209 18.4212C145.212 18.4012 145.235 18.3878 145.255 18.3912L146.023 18.5646C146.043 18.568 146.056 18.5913 146.053 18.6113L145.882 19.3652C145.879 19.3852 145.856 19.3985 145.836 19.3952L145.069 19.2217Z" fill="#5E5E5D"/>
<path d="M146.593 18.5649L147.361 18.7383C147.447 18.7583 147.504 18.8451 147.484 18.9351L147.314 19.6889C147.294 19.7757 147.207 19.8324 147.117 19.8124L146.35 19.6389C146.263 19.6189 146.206 19.5322 146.226 19.4421L146.397 18.6883C146.417 18.6016 146.507 18.5449 146.593 18.5649Z" fill="#585857"/>
<path d="M146.38 19.5153C146.36 19.5119 146.346 19.4886 146.35 19.4686L146.52 18.7147C146.523 18.6947 146.546 18.6814 146.566 18.6847L147.334 18.8582C147.354 18.8615 147.367 18.8848 147.364 18.9049L147.193 19.6587C147.19 19.6787 147.167 19.692 147.147 19.6887L146.38 19.5153Z" fill="#5E5E5D"/>
<path d="M147.904 18.8584L148.671 19.0319C148.758 19.0519 148.815 19.1386 148.795 19.2287L148.624 19.9825C148.604 20.0692 148.518 20.1259 148.428 20.1059L147.66 19.9325C147.574 19.9124 147.517 19.8257 147.537 19.7357L147.707 18.9818C147.727 18.8951 147.817 18.8384 147.904 18.8584Z" fill="#585857"/>
<path d="M147.691 19.8121C147.671 19.8088 147.657 19.7855 147.661 19.7654L147.831 19.0116C147.834 18.9916 147.857 18.9783 147.877 18.9816L148.645 19.155C148.665 19.1584 148.678 19.1817 148.675 19.2017L148.505 19.9556C148.501 19.9756 148.478 19.9889 148.458 19.9856L147.691 19.8121Z" fill="#5E5E5D"/>
<path d="M149.215 19.1552L149.982 19.3287C150.068 19.3487 150.125 19.4354 150.105 19.5255L149.935 20.2793C149.915 20.366 149.828 20.4227 149.738 20.4027L148.971 20.2293C148.884 20.2092 148.828 20.1225 148.848 20.0325L149.018 19.2786C149.041 19.1886 149.128 19.1352 149.215 19.1552Z" fill="#585857"/>
<path d="M149.001 20.1057C148.981 20.1023 148.968 20.079 148.971 20.059L149.141 19.3051C149.145 19.2851 149.168 19.2718 149.188 19.2751L149.955 19.4486C149.975 19.4519 149.989 19.4752 149.985 19.4953L149.815 20.2491C149.812 20.2691 149.788 20.2824 149.768 20.2791L149.001 20.1057Z" fill="#5E5E5D"/>
<path d="M150.526 19.4488L151.293 19.6223C151.379 19.6423 151.436 19.729 151.416 19.819L151.246 20.5729C151.226 20.6596 151.139 20.7163 151.049 20.6963L150.282 20.5228C150.195 20.5028 150.139 20.4161 150.159 20.326L150.329 19.5722C150.352 19.4855 150.439 19.4288 150.526 19.4488Z" fill="#585857"/>
<path d="M150.312 20.3994C150.292 20.3961 150.279 20.3727 150.282 20.3527L150.452 19.5989C150.455 19.5789 150.479 19.5655 150.499 19.5689L151.266 19.7423C151.286 19.7456 151.299 19.769 151.296 19.789L151.126 20.5428C151.122 20.5628 151.099 20.5762 151.079 20.5728L150.312 20.3994Z" fill="#5E5E5D"/>
<path d="M151.837 19.7454L152.604 19.9189C152.691 19.9389 152.747 20.0256 152.727 20.1156L152.557 20.8695C152.537 20.9562 152.45 21.0129 152.36 20.9929L151.593 20.8194C151.506 20.7994 151.45 20.7127 151.47 20.6226L151.64 19.8688C151.663 19.7788 151.75 19.7254 151.837 19.7454Z" fill="#585857"/>
<path d="M151.623 20.696C151.603 20.6927 151.59 20.6694 151.593 20.6494L151.763 19.8955C151.766 19.8755 151.79 19.8622 151.81 19.8655L152.577 20.0389C152.597 20.0423 152.61 20.0656 152.607 20.0856L152.437 20.8395C152.433 20.8595 152.41 20.8728 152.39 20.8695L151.623 20.696Z" fill="#5E5E5D"/>
<path d="M153.151 20.0392L153.918 20.2126C154.005 20.2327 154.061 20.3194 154.041 20.4094L153.871 21.1633C153.851 21.25 153.765 21.3067 153.674 21.2867L152.907 21.1132C152.821 21.0932 152.764 21.0065 152.784 20.9164L152.954 20.1626C152.974 20.0759 153.061 20.0192 153.151 20.0392Z" fill="#585857"/>
<path d="M152.934 20.9898C152.914 20.9865 152.901 20.9631 152.904 20.9431L153.074 20.1893C153.077 20.1693 153.101 20.1559 153.121 20.1592L153.888 20.3327C153.908 20.336 153.921 20.3594 153.918 20.3794L153.748 21.1332C153.745 21.1532 153.721 21.1666 153.701 21.1632L152.934 20.9898Z" fill="#5E5E5D"/>
<path d="M154.461 20.3325L155.229 20.5059C155.315 20.526 155.372 20.6127 155.352 20.7027L155.182 21.4566C155.162 21.5433 155.075 21.6 154.985 21.58L154.218 21.4065C154.131 21.3865 154.074 21.2998 154.095 21.2097L154.265 20.4559C154.285 20.3692 154.371 20.3125 154.461 20.3325Z" fill="#585857"/>
<path d="M154.248 21.2864C154.228 21.2831 154.215 21.2598 154.218 21.2397L154.388 20.4859C154.392 20.4659 154.415 20.4526 154.435 20.4559L155.202 20.6293C155.222 20.6327 155.235 20.656 155.232 20.676L155.062 21.4299C155.059 21.4499 155.035 21.4632 155.015 21.4599L154.248 21.2864Z" fill="#5E5E5D"/>
<path d="M155.772 20.6295L156.54 20.803C156.626 20.823 156.683 20.9097 156.663 20.9998L156.493 21.7536C156.473 21.8403 156.386 21.897 156.296 21.877L155.529 21.7036C155.442 21.6836 155.386 21.5968 155.406 21.5068L155.576 20.753C155.596 20.6629 155.682 20.6095 155.772 20.6295Z" fill="#585857"/>
<path d="M155.559 21.5802C155.539 21.5769 155.525 21.5535 155.529 21.5335L155.699 20.7797C155.702 20.7597 155.726 20.7463 155.746 20.7497L156.513 20.9231C156.533 20.9264 156.546 20.9498 156.543 20.9698L156.373 21.7236C156.369 21.7436 156.346 21.757 156.326 21.7536L155.559 21.5802Z" fill="#5E5E5D"/>
<path d="M157.083 20.9229L157.85 21.0963C157.937 21.1164 157.994 21.2031 157.974 21.2931L157.804 22.047C157.784 22.1337 157.697 22.1904 157.607 22.1704L156.843 21.9969C156.756 21.9769 156.7 21.8902 156.72 21.8001L156.89 21.0463C156.907 20.9596 156.993 20.9029 157.083 20.9229Z" fill="#585857"/>
<path d="M156.87 21.8737C156.85 21.8704 156.836 21.847 156.84 21.827L157.01 21.0732C157.013 21.0532 157.037 21.0398 157.057 21.0432L157.824 21.2166C157.844 21.22 157.857 21.2433 157.854 21.2633L157.68 22.0171C157.677 22.0372 157.654 22.0505 157.634 22.0472L156.87 21.8737Z" fill="#5E5E5D"/>
<path d="M158.394 21.2199L159.161 21.3934C159.248 21.4134 159.305 21.5001 159.285 21.5902L159.115 22.344C159.095 22.4307 159.008 22.4874 158.918 22.4674L158.151 22.294C158.064 22.274 158.007 22.1872 158.027 22.0972L158.197 21.3433C158.217 21.2533 158.307 21.1999 158.394 21.2199Z" fill="#585857"/>
<path d="M158.181 22.1706C158.161 22.1673 158.148 22.1439 158.151 22.1239L158.321 21.3701C158.324 21.3501 158.348 21.3367 158.368 21.34L159.135 21.5135C159.155 21.5168 159.168 21.5402 159.165 21.5602L158.995 22.314C158.991 22.334 158.968 22.3474 158.948 22.344L158.181 22.1706Z" fill="#5E5E5D"/>
<path d="M159.705 21.5133L160.472 21.6867C160.559 21.7068 160.615 21.7935 160.595 21.8835L160.425 22.6374C160.405 22.7241 160.318 22.7808 160.228 22.7608L159.461 22.5873C159.375 22.5673 159.318 22.4806 159.338 22.3905L159.511 21.6367C159.528 21.55 159.618 21.4933 159.705 21.5133Z" fill="#585857"/>
<path d="M159.491 22.4641C159.471 22.4608 159.458 22.4374 159.461 22.4174L159.632 21.6636C159.635 21.6436 159.658 21.6302 159.678 21.6336L160.445 21.807C160.465 21.8104 160.479 21.8337 160.475 21.8537L160.305 22.6075C160.302 22.6276 160.279 22.6409 160.259 22.6376L159.491 22.4641Z" fill="#5E5E5D"/>
<path d="M143.694 19.1952L144.461 19.3687C144.548 19.3887 144.605 19.4754 144.585 19.5654L144.415 20.3193C144.395 20.406 144.308 20.4627 144.218 20.4427L143.451 20.2692C143.364 20.2492 143.307 20.1625 143.327 20.0724L143.501 19.3186C143.521 19.2319 143.607 19.1752 143.694 19.1952Z" fill="#585857"/>
<path d="M143.481 20.1458C143.461 20.1425 143.448 20.1191 143.451 20.0991L143.621 19.3453C143.624 19.3253 143.648 19.3119 143.668 19.3153L144.435 19.4887C144.455 19.492 144.468 19.5154 144.465 19.5354L144.295 20.2892C144.291 20.3092 144.268 20.3226 144.248 20.3192L143.481 20.1458Z" fill="#5E5E5D"/>
<path d="M145.009 19.492L145.776 19.6655C145.863 19.6855 145.919 19.7722 145.899 19.8623L145.729 20.6161C145.709 20.7028 145.623 20.7595 145.533 20.7395L144.765 20.5661C144.679 20.546 144.622 20.4593 144.642 20.3693L144.812 19.6154C144.832 19.5254 144.919 19.472 145.009 19.492Z" fill="#585857"/>
<path d="M144.792 20.4427C144.772 20.4393 144.759 20.416 144.762 20.396L144.932 19.6421C144.935 19.6221 144.959 19.6088 144.979 19.6121L145.746 19.7856C145.766 19.7889 145.779 19.8123 145.776 19.8323L145.606 20.5861C145.603 20.6061 145.579 20.6195 145.559 20.6161L144.792 20.4427Z" fill="#5E5E5D"/>
<path d="M146.319 19.7856L147.087 19.959C147.173 19.9791 147.23 20.0658 147.21 20.1558L147.04 20.9097C147.02 20.9964 146.933 21.0531 146.843 21.0331L146.076 20.8596C145.989 20.8396 145.933 20.7529 145.953 20.6628L146.123 19.909C146.143 19.8223 146.229 19.7656 146.319 19.7856Z" fill="#585857"/>
<path d="M146.106 20.7362C146.086 20.7329 146.073 20.7095 146.076 20.6895L146.246 19.9357C146.25 19.9157 146.273 19.9023 146.293 19.9056L147.06 20.0791C147.08 20.0824 147.093 20.1058 147.09 20.1258L146.92 20.8796C146.917 20.8996 146.893 20.913 146.873 20.9096L146.106 20.7362Z" fill="#5E5E5D"/>
<path d="M147.63 20.0791L148.397 20.2526C148.484 20.2726 148.541 20.3593 148.521 20.4494L148.351 21.2032C148.33 21.2899 148.244 21.3466 148.154 21.3266L147.387 21.1532C147.3 21.1332 147.243 21.0464 147.263 20.9564L147.433 20.2025C147.453 20.1158 147.54 20.0591 147.63 20.0791Z" fill="#585857"/>
<path d="M147.417 21.0297C147.397 21.0264 147.383 21.003 147.387 20.983L147.557 20.2292C147.56 20.2092 147.584 20.1958 147.604 20.1992L148.371 20.3726C148.391 20.376 148.404 20.3993 148.401 20.4193L148.231 21.1732C148.227 21.1932 148.204 21.2065 148.184 21.2032L147.417 21.0297Z" fill="#5E5E5D"/>
<path d="M148.942 20.3759L149.709 20.5494C149.795 20.5694 149.852 20.6561 149.832 20.7462L149.662 21.5C149.642 21.5867 149.555 21.6434 149.465 21.6234L148.698 21.45C148.611 21.43 148.555 21.3432 148.575 21.2532L148.745 20.4994C148.765 20.4093 148.855 20.3559 148.942 20.3759Z" fill="#585857"/>
<path d="M148.728 21.3266C148.708 21.3233 148.694 21.2999 148.698 21.2799L148.868 20.5261C148.871 20.5061 148.895 20.4927 148.915 20.4961L149.682 20.6695C149.702 20.6728 149.715 20.6962 149.712 20.7162L149.542 21.47C149.538 21.49 149.515 21.5034 149.495 21.5L148.728 21.3266Z" fill="#5E5E5D"/>
<path d="M150.252 20.6693L151.019 20.8427C151.106 20.8628 151.163 20.9495 151.143 21.0395L150.973 21.7934C150.953 21.8801 150.866 21.9368 150.776 21.9168L150.009 21.7433C149.922 21.7233 149.865 21.6366 149.885 21.5465L150.055 20.7927C150.075 20.706 150.165 20.6493 150.252 20.6693Z" fill="#585857"/>
<path d="M150.039 21.6201C150.019 21.6168 150.006 21.5934 150.009 21.5734L150.179 20.8196C150.182 20.7996 150.206 20.7862 150.226 20.7896L150.993 20.963C151.013 20.9664 151.026 20.9897 151.023 21.0097L150.853 21.7635C150.849 21.7836 150.826 21.7969 150.806 21.7936L150.039 21.6201Z" fill="#5E5E5D"/>
<path d="M151.563 20.9663L152.33 21.1398C152.417 21.1598 152.473 21.2465 152.453 21.3366L152.283 22.0904C152.263 22.1771 152.176 22.2338 152.086 22.2138L151.319 22.0404C151.233 22.0204 151.176 21.9336 151.196 21.8436L151.366 21.0897C151.389 20.9997 151.476 20.9463 151.563 20.9663Z" fill="#585857"/>
<path d="M151.349 21.917C151.329 21.9137 151.316 21.8903 151.319 21.8703L151.49 21.1165C151.493 21.0965 151.516 21.0831 151.536 21.0864L152.303 21.2599C152.323 21.2632 152.337 21.2866 152.333 21.3066L152.163 22.0604C152.16 22.0804 152.137 22.0938 152.117 22.0904L151.349 21.917Z" fill="#5E5E5D"/>
<path d="M152.874 21.2597L153.641 21.4331C153.728 21.4532 153.784 21.5399 153.764 21.6299L153.594 22.3838C153.574 22.4705 153.488 22.5272 153.397 22.5072L152.63 22.3337C152.544 22.3137 152.487 22.227 152.507 22.1369L152.677 21.3831C152.7 21.2964 152.787 21.2397 152.874 21.2597Z" fill="#585857"/>
<path d="M152.66 22.2105C152.64 22.2072 152.627 22.1838 152.63 22.1638L152.8 21.41C152.804 21.39 152.827 21.3766 152.847 21.38L153.614 21.5534C153.634 21.5567 153.647 21.5801 153.644 21.6001L153.474 22.3539C153.471 22.374 153.447 22.3873 153.427 22.384L152.66 22.2105Z" fill="#5E5E5D"/>
<path d="M154.185 21.5534L154.952 21.7269C155.039 21.7469 155.095 21.8336 155.075 21.9237L154.905 22.6775C154.885 22.7642 154.799 22.8209 154.709 22.8009L153.941 22.6275C153.855 22.6075 153.798 22.5208 153.818 22.4307L153.988 21.6769C154.011 21.5901 154.098 21.5334 154.185 21.5534Z" fill="#585857"/>
<path d="M153.971 22.504C153.951 22.5007 153.938 22.4774 153.941 22.4573L154.111 21.7035C154.115 21.6835 154.138 21.6702 154.158 21.6735L154.925 21.8469C154.945 21.8503 154.958 21.8736 154.955 21.8936L154.785 22.6475C154.782 22.6675 154.758 22.6808 154.738 22.6775L153.971 22.504Z" fill="#5E5E5D"/>
<path d="M155.495 21.8503L156.263 22.0237C156.349 22.0437 156.406 22.1304 156.386 22.2205L156.216 22.9743C156.196 23.0611 156.109 23.1178 156.019 23.0977L155.252 22.9243C155.165 22.9043 155.109 22.8176 155.129 22.7275L155.299 21.9737C155.322 21.8836 155.409 21.8302 155.495 21.8503Z" fill="#585857"/>
<path d="M155.282 22.8009C155.262 22.7976 155.249 22.7742 155.252 22.7542L155.422 22.0004C155.426 21.9804 155.449 21.967 155.469 21.9704L156.236 22.1438C156.256 22.1471 156.269 22.1705 156.266 22.1905L156.096 22.9443C156.093 22.9643 156.069 22.9777 156.049 22.9744L155.282 22.8009Z" fill="#5E5E5D"/>
<path d="M156.81 22.1438L157.577 22.3173C157.664 22.3373 157.72 22.424 157.7 22.5141L157.53 23.2679C157.51 23.3546 157.423 23.4113 157.333 23.3913L156.566 23.2179C156.479 23.1979 156.423 23.1111 156.443 23.0211L156.613 22.2673C156.633 22.1805 156.72 22.1238 156.81 22.1438Z" fill="#585857"/>
<path d="M156.593 23.0944C156.573 23.0911 156.559 23.0678 156.563 23.0477L156.733 22.2939C156.736 22.2739 156.76 22.2606 156.78 22.2639L157.547 22.4373C157.567 22.4407 157.58 22.464 157.577 22.484L157.407 23.2379C157.403 23.2579 157.38 23.2712 157.36 23.2679L156.593 23.0944Z" fill="#5E5E5D"/>
<path d="M158.121 22.4407L158.888 22.6141C158.975 22.6341 159.031 22.7208 159.011 22.8109L158.841 23.5647C158.821 23.6514 158.734 23.7082 158.644 23.6881L157.877 23.5147C157.79 23.4947 157.734 23.408 157.754 23.3179L157.924 22.5641C157.944 22.474 158.031 22.4206 158.121 22.4407Z" fill="#585857"/>
<path d="M157.907 23.3913C157.887 23.388 157.874 23.3646 157.877 23.3446L158.047 22.5908C158.051 22.5708 158.074 22.5574 158.094 22.5608L158.861 22.7342C158.881 22.7376 158.895 22.7609 158.891 22.7809L158.721 23.5347C158.718 23.5548 158.695 23.5681 158.675 23.5648L157.907 23.3913Z" fill="#5E5E5D"/>
<path d="M159.432 22.7342L160.199 22.9077C160.286 22.9277 160.342 23.0144 160.322 23.1045L160.152 23.8583C160.132 23.945 160.045 24.0017 159.955 23.9817L159.188 23.8083C159.102 23.7883 159.045 23.7015 159.065 23.6115L159.235 22.8576C159.255 22.7709 159.342 22.7142 159.432 22.7342Z" fill="#585857"/>
<path d="M159.218 23.6848C159.198 23.6815 159.185 23.6581 159.188 23.6381L159.358 22.8843C159.361 22.8643 159.385 22.851 159.405 22.8543L160.172 23.0277C160.192 23.0311 160.205 23.0544 160.202 23.0744L160.032 23.8283C160.029 23.8483 160.005 23.8616 159.985 23.8583L159.218 23.6848Z" fill="#5E5E5D"/>
<path d="M143.421 20.4159L144.188 20.5894C144.275 20.6094 144.332 20.6961 144.312 20.7862L144.142 21.54C144.122 21.6267 144.035 21.6834 143.945 21.6634L143.178 21.49C143.091 21.4699 143.034 21.3832 143.054 21.2932L143.224 20.5393C143.248 20.4526 143.335 20.3959 143.421 20.4159Z" fill="#585857"/>
<path d="M143.208 21.3665C143.187 21.3632 143.174 21.3398 143.177 21.3198L143.348 20.566C143.351 20.546 143.374 20.5326 143.394 20.536L144.161 20.7094C144.181 20.7128 144.195 20.7361 144.191 20.7561L144.021 21.5099C144.018 21.53 143.995 21.5433 143.975 21.54L143.208 21.3665Z" fill="#5E5E5D"/>
<path d="M144.732 20.7094L145.499 20.8828C145.586 20.9028 145.642 20.9895 145.622 21.0796L145.452 21.8334C145.432 21.9202 145.346 21.9769 145.255 21.9568L144.488 21.7834C144.402 21.7634 144.345 21.6767 144.365 21.5866L144.535 20.8328C144.558 20.746 144.645 20.6927 144.732 20.7094Z" fill="#585857"/>
<path d="M144.519 21.6636C144.499 21.6603 144.485 21.6369 144.489 21.6169L144.659 20.8631C144.662 20.8431 144.685 20.8297 144.705 20.8331L145.472 21.0065C145.493 21.0098 145.506 21.0332 145.503 21.0532L145.332 21.807C145.329 21.827 145.306 21.8404 145.286 21.8371L144.519 21.6636Z" fill="#5E5E5D"/>
<path d="M146.042 21.0063L146.81 21.1798C146.896 21.1998 146.953 21.2865 146.933 21.3766L146.763 22.1304C146.743 22.2171 146.656 22.2738 146.566 22.2538L145.799 22.0804C145.712 22.0603 145.655 21.9736 145.676 21.8836L145.846 21.1297C145.869 21.043 145.956 20.9863 146.042 21.0063Z" fill="#585857"/>
<path d="M145.829 21.9569C145.809 21.9536 145.796 21.9302 145.799 21.9102L145.969 21.1564C145.973 21.1364 145.996 21.123 146.016 21.1264L146.783 21.2998C146.803 21.3031 146.816 21.3265 146.813 21.3465L146.643 22.1003C146.64 22.1204 146.616 22.1337 146.596 22.1304L145.829 21.9569Z" fill="#5E5E5D"/>
<path d="M147.357 21.2998L148.124 21.4733C148.211 21.4933 148.268 21.58 148.248 21.6701L148.078 22.4239C148.058 22.5106 147.971 22.5673 147.881 22.5473L147.114 22.3739C147.027 22.3539 146.97 22.2672 146.99 22.1771L147.16 21.4233C147.18 21.3365 147.267 21.2798 147.357 21.2998Z" fill="#585857"/>
<path d="M147.14 22.2504C147.12 22.2471 147.107 22.2238 147.11 22.2037L147.28 21.4499C147.284 21.4299 147.307 21.4166 147.327 21.4199L148.094 21.5933C148.114 21.5967 148.128 21.62 148.124 21.64L147.954 22.3939C147.951 22.4139 147.927 22.4272 147.907 22.4239L147.14 22.2504Z" fill="#5E5E5D"/>
<path d="M148.668 21.5969L149.435 21.7703C149.522 21.7903 149.578 21.8771 149.558 21.9671L149.388 22.7209C149.368 22.8077 149.281 22.8644 149.191 22.8444L148.424 22.6709C148.337 22.6509 148.281 22.5642 148.301 22.4741L148.471 21.7203C148.491 21.6302 148.578 21.5769 148.668 21.5969Z" fill="#585857"/>
<path d="M148.454 22.5473C148.434 22.544 148.421 22.5206 148.424 22.5006L148.594 21.7468C148.598 21.7268 148.621 21.7134 148.641 21.7168L149.408 21.8902C149.428 21.8935 149.442 21.9169 149.438 21.9369L149.268 22.6907C149.265 22.7107 149.242 22.7241 149.222 22.7208L148.454 22.5473Z" fill="#5E5E5D"/>
<path d="M149.979 21.8902L150.746 22.0637C150.833 22.0837 150.889 22.1704 150.869 22.2605L150.699 23.0143C150.679 23.101 150.592 23.1577 150.502 23.1377L149.735 22.9643C149.648 22.9443 149.592 22.8575 149.612 22.7675L149.782 22.0137C149.802 21.9269 149.889 21.8702 149.979 21.8902Z" fill="#585857"/>
<path d="M149.765 22.8408C149.745 22.8375 149.732 22.8142 149.735 22.7941L149.905 22.0403C149.908 22.0203 149.932 22.007 149.952 22.0103L150.719 22.1837C150.739 22.1871 150.752 22.2104 150.749 22.2304L150.579 22.9843C150.575 23.0043 150.552 23.0176 150.532 23.0143L149.765 22.8408Z" fill="#5E5E5D"/>
<path d="M151.29 22.1837L152.057 22.3571C152.144 22.3771 152.2 22.4639 152.18 22.5539L152.01 23.3077C151.99 23.3945 151.903 23.4512 151.813 23.4312L151.046 23.2577C150.96 23.2377 150.903 23.151 150.923 23.0609L151.093 22.3071C151.113 22.2204 151.2 22.167 151.29 22.1837Z" fill="#585857"/>
<path d="M151.076 23.1377C151.056 23.1344 151.043 23.111 151.046 23.091L151.216 22.3372C151.219 22.3172 151.243 22.3038 151.263 22.3072L152.03 22.4806C152.05 22.4839 152.063 22.5073 152.06 22.5273L151.89 23.2811C151.887 23.3012 151.863 23.3145 151.843 23.3112L151.076 23.1377Z" fill="#5E5E5D"/>
<path d="M152.6 22.4806L153.368 22.654C153.454 22.674 153.511 22.7608 153.491 22.8508L153.321 23.6046C153.301 23.6914 153.214 23.7481 153.124 23.7281L152.357 23.5546C152.27 23.5346 152.213 23.4479 152.233 23.3578L152.404 22.604C152.424 22.5139 152.514 22.4606 152.6 22.4806Z" fill="#585857"/>
<path d="M152.387 23.4312C152.367 23.4279 152.354 23.4045 152.357 23.3845L152.527 22.6307C152.53 22.6107 152.554 22.5973 152.574 22.6007L153.341 22.7741C153.361 22.7775 153.374 22.8008 153.371 22.8208L153.201 23.5747C153.198 23.5947 153.174 23.608 153.154 23.6047L152.387 23.4312Z" fill="#5E5E5D"/>
<path d="M153.911 22.7742L154.678 22.9476C154.765 22.9676 154.822 23.0544 154.802 23.1444L154.631 23.8982C154.611 23.985 154.525 24.0417 154.435 24.0217L153.667 23.8482C153.581 23.8282 153.524 23.7415 153.544 23.6514L153.714 22.8976C153.734 22.8109 153.824 22.7542 153.911 22.7742Z" fill="#585857"/>
<path d="M153.698 23.7248C153.678 23.7214 153.664 23.6981 153.668 23.6781L153.838 22.9242C153.841 22.9042 153.864 22.8909 153.884 22.8942L154.652 23.0677C154.672 23.071 154.685 23.0943 154.682 23.1144L154.508 23.8682C154.505 23.8882 154.482 23.9015 154.462 23.8982L153.698 23.7248Z" fill="#5E5E5D"/>
<path d="M155.222 23.071L155.989 23.2444C156.076 23.2644 156.133 23.3512 156.113 23.4412L155.942 24.1951C155.922 24.2818 155.836 24.3385 155.746 24.3185L154.979 24.145C154.892 24.125 154.835 24.0383 154.855 23.9482L155.025 23.1944C155.049 23.1043 155.135 23.051 155.222 23.071Z" fill="#585857"/>
<path d="M155.008 24.0216C154.988 24.0183 154.975 23.9983 154.978 23.9749L155.148 23.2211C155.152 23.2011 155.175 23.1877 155.195 23.1911L155.962 23.3645C155.982 23.3679 155.996 23.3912 155.992 23.4112L155.822 24.1651C155.819 24.1851 155.795 24.1984 155.775 24.1951L155.008 24.0216Z" fill="#5E5E5D"/>
<path d="M156.533 23.3646L157.3 23.538C157.387 23.558 157.444 23.6447 157.424 23.7348L157.254 24.4886C157.234 24.5754 157.147 24.6321 157.057 24.612L156.29 24.4386C156.203 24.4186 156.146 24.3319 156.166 24.2418L156.336 23.488C156.36 23.4013 156.446 23.3445 156.533 23.3646Z" fill="#585857"/>
<path d="M156.319 24.3152C156.299 24.3118 156.286 24.2885 156.289 24.2685L156.459 23.5146C156.463 23.4946 156.486 23.4813 156.506 23.4846L157.273 23.6581C157.293 23.6614 157.307 23.6847 157.303 23.7048L157.133 24.4586C157.13 24.4786 157.107 24.4919 157.086 24.4886L156.319 24.3152Z" fill="#5E5E5D"/>
<path d="M157.844 23.6581L158.611 23.8315C158.698 23.8515 158.754 23.9383 158.734 24.0283L158.564 24.7822C158.544 24.8689 158.457 24.9256 158.367 24.9056L157.6 24.7321C157.513 24.7121 157.457 24.6254 157.477 24.5353L157.647 23.7815C157.67 23.6948 157.757 23.6381 157.844 23.6581Z" fill="#585857"/>
<path d="M157.63 24.612C157.61 24.6087 157.597 24.5853 157.6 24.5653L157.77 23.8115C157.774 23.7915 157.797 23.7782 157.817 23.7815L158.584 23.9549C158.604 23.9583 158.618 23.9816 158.614 24.0016L158.444 24.7521C158.441 24.7721 158.418 24.7855 158.398 24.7821L157.63 24.612Z" fill="#5E5E5D"/>
<path d="M159.158 23.9549L159.925 24.1283C160.012 24.1484 160.068 24.2351 160.048 24.3251L159.878 25.079C159.858 25.1657 159.772 25.2224 159.682 25.2024L158.914 25.0289C158.828 25.0089 158.771 24.9222 158.791 24.8321L158.961 24.0783C158.981 23.9882 159.068 23.9349 159.158 23.9549Z" fill="#585857"/>
<path d="M158.941 24.9056C158.921 24.9022 158.908 24.8789 158.911 24.8589L159.081 24.105C159.084 24.085 159.108 24.0717 159.128 24.075L159.895 24.2485C159.915 24.2518 159.928 24.2751 159.925 24.2952L159.755 25.049C159.752 25.069 159.728 25.0823 159.708 25.079L158.941 24.9056Z" fill="#5E5E5D"/>
<path d="M143.147 21.6369L143.914 21.8103C144.001 21.8303 144.058 21.9171 144.038 22.0071L143.868 22.7609C143.848 22.8477 143.761 22.9044 143.671 22.8844L142.904 22.7109C142.817 22.6909 142.76 22.6042 142.78 22.5141L142.951 21.7603C142.971 21.6736 143.061 21.6169 143.147 21.6369Z" fill="#585857"/>
<path d="M142.934 22.5875C142.914 22.5841 142.901 22.5608 142.904 22.5408L143.074 21.7869C143.077 21.7669 143.101 21.7536 143.121 21.7569L143.888 21.9304C143.908 21.9337 143.921 21.9571 143.918 21.9771L143.748 22.7309C143.745 22.7509 143.721 22.7642 143.701 22.7609L142.934 22.5875Z" fill="#5E5E5D"/>
<path d="M144.458 21.9304L145.226 22.1038C145.312 22.1238 145.369 22.2106 145.349 22.3006L145.179 23.0545C145.159 23.1412 145.072 23.1979 144.982 23.1779L144.215 23.0044C144.128 22.9844 144.071 22.8977 144.091 22.8076L144.262 22.0538C144.282 21.9671 144.372 21.9104 144.458 21.9304Z" fill="#585857"/>
<path d="M144.245 22.881C144.225 22.8776 144.212 22.8543 144.215 22.8343L144.385 22.0805C144.389 22.0604 144.412 22.0471 144.432 22.0504L145.199 22.2239C145.219 22.2272 145.232 22.2506 145.229 22.2706L145.059 23.0244C145.056 23.0444 145.032 23.0578 145.012 23.0544L144.245 22.881Z" fill="#5E5E5D"/>
<path d="M145.769 22.2272L146.537 22.4006C146.623 22.4207 146.68 22.5074 146.66 22.5974L146.49 23.3513C146.47 23.438 146.383 23.4947 146.293 23.4747L145.526 23.3012C145.439 23.2812 145.382 23.1945 145.402 23.1044L145.576 22.3506C145.596 22.2606 145.683 22.2072 145.769 22.2272Z" fill="#585857"/>
<path d="M145.556 23.1776C145.536 23.1743 145.522 23.1509 145.526 23.1309L145.696 22.3771C145.699 22.3571 145.722 22.3437 145.742 22.3471L146.51 22.5205C146.53 22.5239 146.543 22.5472 146.54 22.5672L146.37 23.3211C146.366 23.3411 146.343 23.3544 146.323 23.3511L145.556 23.1776Z" fill="#5E5E5D"/>
<path d="M147.08 22.5208L147.847 22.6942C147.934 22.7142 147.991 22.801 147.971 22.891L147.8 23.6449C147.78 23.7316 147.694 23.7883 147.604 23.7683L146.837 23.5948C146.75 23.5748 146.693 23.4881 146.713 23.398L146.883 22.6442C146.907 22.5575 146.993 22.5008 147.08 22.5208Z" fill="#585857"/>
<path d="M146.867 23.4714C146.847 23.468 146.833 23.4447 146.837 23.4247L147.007 22.6709C147.01 22.6508 147.034 22.6375 147.054 22.6408L147.821 22.8143C147.841 22.8176 147.854 22.841 147.851 22.861L147.681 23.6148C147.677 23.6348 147.654 23.6482 147.634 23.6448L146.867 23.4714Z" fill="#5E5E5D"/>
<path d="M153.09 23.8716L148.384 22.8143C148.297 22.7942 148.214 22.8476 148.194 22.9343L148.01 23.7449C147.997 23.8049 148.034 23.865 148.094 23.8783L152.844 24.9457C152.93 24.9657 153.02 24.909 153.04 24.8222L153.21 24.0684C153.234 23.9817 153.18 23.8916 153.09 23.8716Z" fill="#585857"/>
<path d="M148.141 23.7581L148.321 22.961C148.324 22.9443 148.344 22.9309 148.361 22.9376L153.067 23.995C153.087 23.9983 153.1 24.0217 153.097 24.0417L152.927 24.7955C152.924 24.8155 152.9 24.8288 152.88 24.8255L148.141 23.7581Z" fill="#5E5E5D"/>
<path d="M153.638 23.9951L154.405 24.1685C154.492 24.1886 154.549 24.2753 154.529 24.3653L154.358 25.1192C154.338 25.2059 154.252 25.2626 154.162 25.2426L153.394 25.0691C153.308 25.0491 153.251 24.9624 153.271 24.8723L153.441 24.1185C153.461 24.0318 153.548 23.9751 153.638 23.9951Z" fill="#585857"/>
<path d="M153.424 24.9457C153.404 24.9424 153.391 24.919 153.394 24.899L153.564 24.1452C153.568 24.1252 153.591 24.1118 153.611 24.1152L154.378 24.2886C154.398 24.2919 154.412 24.3153 154.408 24.3353L154.238 25.0891C154.235 25.1091 154.211 25.1225 154.191 25.1191L153.424 24.9457Z" fill="#5E5E5D"/>
<path d="M154.949 24.2919L155.716 24.4654C155.802 24.4854 155.859 24.5721 155.839 24.6622L155.669 25.416C155.649 25.5027 155.562 25.5594 155.472 25.5394L154.705 25.366C154.618 25.3459 154.562 25.2592 154.582 25.1692L154.752 24.4153C154.772 24.3253 154.862 24.2719 154.949 24.2919Z" fill="#585857"/>
<path d="M154.735 25.2426C154.715 25.2392 154.702 25.2159 154.705 25.1959L154.875 24.442C154.879 24.422 154.902 24.4087 154.922 24.412L155.689 24.5855C155.709 24.5888 155.723 24.6122 155.719 24.6322L155.549 25.386C155.546 25.406 155.522 25.4194 155.502 25.416L154.735 25.2426Z" fill="#5E5E5D"/>
<path d="M156.259 24.5855L157.026 24.7589C157.113 24.779 157.17 24.8657 157.15 24.9557L156.98 25.7096C156.96 25.7963 156.873 25.853 156.783 25.833L156.016 25.6595C155.929 25.6395 155.872 25.5528 155.892 25.4627L156.062 24.7089C156.082 24.6222 156.172 24.5655 156.259 24.5855Z" fill="#585857"/>
<path d="M156.046 25.5361C156.026 25.5328 156.013 25.5094 156.016 25.4894L156.186 24.7356C156.189 24.7155 156.213 24.7022 156.233 24.7055L157 24.879C157.02 24.8823 157.033 24.9057 157.03 24.9257L156.86 25.6795C156.856 25.6995 156.836 25.7129 156.813 25.7095L156.046 25.5361Z" fill="#5E5E5D"/>
<path d="M157.57 24.8788L158.337 25.0522C158.424 25.0723 158.481 25.159 158.461 25.249L158.291 26.0029C158.271 26.0896 158.184 26.1463 158.094 26.1263L157.327 25.9528C157.24 25.9328 157.183 25.8461 157.203 25.756L157.373 25.0022C157.397 24.9155 157.483 24.8588 157.57 24.8788Z" fill="#585857"/>
<path d="M157.356 25.8296C157.336 25.8263 157.323 25.8029 157.326 25.7829L157.497 25.0291C157.5 25.0091 157.523 24.9957 157.543 24.9991L158.31 25.1725C158.33 25.1759 158.344 25.1992 158.34 25.2192L158.17 25.9731C158.167 25.9931 158.144 26.0064 158.124 26.0031L157.356 25.8296Z" fill="#5E5E5D"/>
<path d="M158.881 25.1758L159.648 25.3493C159.735 25.3693 159.792 25.456 159.772 25.5461L159.602 26.2999C159.582 26.3866 159.495 26.4433 159.405 26.4233L158.638 26.2499C158.551 26.2299 158.494 26.1431 158.514 26.0531L158.684 25.2993C158.708 25.2092 158.795 25.1558 158.881 25.1758Z" fill="#585857"/>
<path d="M158.668 26.1265C158.648 26.1232 158.635 26.0998 158.638 26.0798L158.808 25.326C158.811 25.306 158.835 25.2926 158.855 25.296L159.622 25.4694C159.642 25.4727 159.655 25.4961 159.652 25.5161L159.482 26.2699C159.479 26.2899 159.455 26.3033 159.435 26.2999L158.668 26.1265Z" fill="#5E5E5D"/>
<path d="M152.854 25.9996L149.004 25.1357C148.831 25.0957 148.658 25.2058 148.621 25.3792L148.157 27.4372C148.117 27.6107 148.227 27.7841 148.401 27.8208L152.25 28.6847C152.423 28.7247 152.597 28.6147 152.634 28.4412L153.097 26.3832C153.137 26.2097 153.027 26.0396 152.854 25.9996Z" fill="#EDEDED"/>
<path d="M152.884 25.8761L149.034 25.0122C148.794 24.9589 148.554 25.109 148.501 25.3491L148.037 27.4071C147.984 27.6473 148.134 27.8875 148.374 27.9408L152.223 28.8047C152.463 28.8581 152.704 28.708 152.757 28.4678L153.221 26.4098C153.274 26.1697 153.124 25.9328 152.884 25.8761ZM152.637 28.4412C152.597 28.6146 152.427 28.7247 152.253 28.6846L148.404 27.8207C148.231 27.7807 148.121 27.6106 148.161 27.4372L148.624 25.3791C148.664 25.2057 148.834 25.0956 149.008 25.1356L152.857 25.9996C153.03 26.0396 153.14 26.2097 153.1 26.3831L152.637 28.4412Z" fill="#9D9B9B"/>
<path d="M148.388 26.4231L148.161 27.4371C148.121 27.6106 148.231 27.784 148.404 27.8207L152.254 28.6846C152.427 28.7247 152.6 28.6146 152.637 28.4411L152.864 27.4271L148.388 26.4231Z" fill="#DFDFDE"/>
<path d="M150.609 26.9203L148.388 26.42L148.161 27.434C148.121 27.6075 148.231 27.7809 148.404 27.8176L150.312 28.2479L150.609 26.9203Z" fill="#D9D9DA"/>
<path d="M162.09 20.0924L143.191 15.843C143.081 15.8163 143.004 15.7129 143.014 15.5995L144.992 4.78571C145.019 4.48885 145.299 4.28538 145.589 4.35209L164.838 8.68161C165.129 8.74832 165.295 9.05185 165.192 9.33203L162.353 19.949C162.313 20.0557 162.203 20.1191 162.09 20.0924Z" fill="#E3E1E1"/>
<path d="M143.838 14.8055L145.663 5.6762C145.689 5.39602 145.953 5.20255 146.226 5.26593L163.868 9.23187C164.141 9.29191 164.298 9.5821 164.201 9.84561L161.947 18.8749C161.867 19.095 161.636 19.2184 161.406 19.1684L144.202 15.2992C143.971 15.2492 143.818 15.0357 143.838 14.8055Z" fill="#C7C7C6"/>
<path d="M143.965 14.8189L145.789 5.68286C145.809 5.47939 145.999 5.3393 146.199 5.386L163.848 9.35527C164.044 9.39863 164.161 9.60877 164.091 9.7989L161.83 18.8348C161.773 18.9949 161.606 19.085 161.439 19.0483L144.225 15.1758C144.061 15.1391 143.948 14.9856 143.965 14.8189Z" fill="#C6E6F2"/>
<path opacity="0.24" d="M144.238 13.945C144.565 13.3579 145.012 12.8042 145.506 12.3439C146.786 11.1531 148.571 10.496 150.252 10.1358C152.233 9.70884 154.452 8.83493 156.466 9.01172C159.261 9.25187 161.153 9.67882 163.801 10.5894L164.091 9.7989C164.161 9.60878 164.048 9.39864 163.848 9.35528L146.199 5.386C146.003 5.34264 145.809 5.48273 145.789 5.68286L143.995 14.4886C144.055 14.2919 144.151 14.1017 144.238 13.945Z" fill="#B6E0ED"/>
<path d="M159.351 19.4786L145.903 16.4533L145.909 16.2265L159.468 19.2752L159.351 19.4786Z" fill="#585857"/>
<path d="M154.972 6.88705C154.992 6.80366 155.076 6.7503 155.159 6.77031C155.242 6.79032 155.296 6.87371 155.276 6.9571C155.256 7.04049 155.172 7.09385 155.089 7.07384C155.005 7.05716 154.952 6.97378 154.972 6.88705Z" fill="#3C3C3B"/>
<path d="M155.015 6.89705C155.029 6.83701 155.089 6.80032 155.149 6.81366C155.209 6.82701 155.245 6.88705 155.232 6.94708C155.219 7.00712 155.159 7.04381 155.099 7.03047C155.039 7.01713 155.002 6.95709 155.015 6.89705Z" fill="#585857"/>
<path d="M155.079 6.91379C155.085 6.89044 155.109 6.87376 155.132 6.88043C155.155 6.88711 155.172 6.91045 155.165 6.9338C155.159 6.95715 155.135 6.97383 155.112 6.96716C155.089 6.96049 155.072 6.93714 155.079 6.91379Z" fill="#B6E0ED"/>
</g>
<path d="M35.3077 81.9767C34.4108 78.1851 30.6193 75.8468 26.8483 76.7473C23.0721 77.6479 20.7432 81.4548 21.6401 85.2412C22.272 87.9019 24.3308 89.8463 26.8075 90.4552C26.9502 90.8339 27.2152 93.1313 27.6891 93.8681C27.9031 94.2007 28.1732 94.257 28.586 94.17C28.9173 95.352 30.3034 96.4368 31.4449 96.3293C32.245 96.2526 32.8259 95.6999 33.0858 94.958C33.2896 94.3798 33.4527 93.7146 33.5546 93.0699C34.105 93.0546 34.37 92.9983 34.3445 92.4815C34.2987 91.586 33.3304 89.1197 33.2947 88.7411C35.0529 87.0679 35.909 84.5197 35.3077 81.9767Z" fill="#FDFFFC"/>
<path d="M31.6538 81.721C31.5468 81.3372 31.1697 81.0814 30.7722 81.1786C30.4002 81.2656 30.1199 81.6801 30.232 82.0638C30.2983 82.2992 30.4715 82.4885 30.6805 82.5755C30.5276 83.5682 30.3339 84.5455 30.2524 85.5484C30.176 86.4796 30.0995 87.3904 29.8957 88.2961C28.7898 86.6331 27.6891 84.9753 26.4712 83.3942C26.8075 83.0718 26.5527 82.3504 25.987 82.4834C25.3195 82.642 25.5641 83.6858 26.2367 83.5272C26.2418 83.5272 26.2469 83.5221 26.252 83.517C27.5158 85.313 28.7542 87.1346 29.7836 89.0789C29.8957 89.2887 30.2014 89.2427 30.2728 89.0278C30.6091 88.0249 30.7059 87.0015 30.7773 85.9526C30.8588 84.8218 31.078 83.7114 31.1697 82.5857C31.5111 82.4732 31.7557 82.0843 31.6538 81.721Z" fill="#AEB4FC"/>
<path d="M23.1685 75.5399C21.7467 74.8338 20.3198 74.1226 18.898 73.4114C18.6024 73.2681 18.3323 73.6928 18.6279 73.8514C20.014 74.6189 21.4052 75.3813 22.7914 76.1488C23.199 76.374 23.5761 75.7446 23.1685 75.5399Z" fill="#808AFF"/>
<path d="M25.8441 70.1161C25.7269 69.8551 25.3906 70.0444 25.416 70.2798C25.5893 71.7535 26.1346 73.2578 26.5626 74.6803C26.6697 75.0282 27.2047 74.9105 27.1181 74.5472C26.7665 73.0838 26.4607 71.4925 25.8441 70.1161Z" fill="#808AFF"/>
<path d="M32.4691 69.6863C32.1022 70.0087 31.878 70.5204 31.6487 70.9502C31.4092 71.4005 31.1951 71.861 30.9913 72.3266C30.8282 72.7053 31.455 72.9048 31.613 72.5159C31.8016 72.0401 32.0054 71.5796 32.2398 71.1242C32.4386 70.7302 32.729 70.3464 32.8462 69.9217C32.9125 69.6915 32.6373 69.5328 32.4691 69.6863Z" fill="#808AFF"/>
<defs>
<clipPath id="clip0_362_8">
<rect width="14" height="17" fill="white" transform="translate(152.5 41.3394)"/>
</clipPath>
<clipPath id="clip1_362_8">
<rect width="69" height="12" fill="white" transform="translate(56.5 134.339)"/>
</clipPath>
<clipPath id="clip2_362_8">
<rect width="32" height="26" fill="white" transform="translate(137.5 75.3394)"/>
</clipPath>
<clipPath id="clip3_362_8">
<rect width="35" height="35" fill="white" transform="translate(39.5 0.339386)"/>
</clipPath>
</defs>
</svg>
